{
    "asset" : {
        "generator" : "Khronos glTF Blender I/O v1.6.16",
        "version" : "2.0"
    },
    "extensionsUsed" : [
        "KHR_materials_transmission"
    ],
    "scene" : 0,
    "scenes" : [
        {
            "name" : "Scene",
            "nodes" : [
                0,
                1,
                2,
                3,
                4,
                5
            ]
        }
    ],
    "nodes" : [
        {
            "mesh" : 0,
            "name" : "\u5186\u67f1.002",
            "scale" : [
                -0.3247819244861603,
                -0.050586383789777756,
                -0.3247819244861603
            ],
            "translation" : [
                0.19352833926677704,
                2.7484686374664307,
                0.04738059639930725
            ]
        },
        {
            "mesh" : 1,
            "name" : "\u5186\u67f1.003",
            "scale" : [
                -0.2818303406238556,
                -0.14004042744636536,
                -0.2818303406238556
            ],
            "translation" : [
                0.2051229327917099,
                2.91731333732605,
                0.04738059639930725
            ]
        },
        {
            "mesh" : 2,
            "name" : "\u5e73\u9762",
            "scale" : [
                15.323273658752441,
                15.323273658752441,
                15.323273658752441
            ]
        },
        {
            "mesh" : 3,
            "name" : "\u672c\u4f53",
            "translation" : [
                0.20927950739860535,
                1.2877905368804932,
                0.04738059639930725
            ]
        },
        {
            "mesh" : 4,
            "name" : "\u672c\u4f53\u4e0a",
            "scale" : [
                0.23792798817157745,
                0.07322099059820175,
                0.23792798817157745
            ],
            "translation" : [
                0.1995452493429184,
                2.6299524307250977,
                0.059436991810798645
            ]
        },
        {
            "mesh" : 5,
            "name" : "\u672c\u4f53.001",
            "scale" : [
                0.8914743661880493,
                0.8914743661880493,
                0.8914743661880493
            ],
            "translation" : [
                0.20927950739860535,
                1.2877905368804932,
                0.04738059639930725
            ]
        }
    ],
    "materials" : [
        {
            "doubleSided" : true,
            "name" : "\u30de\u30c6\u30ea\u30a2\u30eb.001",
            "pbrMetallicRoughness" : {
                "baseColorFactor" : [
                    0.800000011920929,
                    0.800000011920929,
                    0.800000011920929,
                    1
                ],
                "metallicFactor" : 0,
                "roughnessFactor" : 0.5
            }
        },
        {
            "alphaMode" : "BLEND",
            "name" : "\u30de\u30c6\u30ea\u30a2\u30eb",
            "pbrMetallicRoughness" : {
                "baseColorFactor" : [
                    0.800000011920929,
                    0.800000011920929,
                    0.800000011920929,
                    0.5123969912528992
                ],
                "metallicFactor" : 0.9834710955619812,
                "roughnessFactor" : 0.024793388321995735
            }
        },
        {
            "doubleSided" : true,
            "extensions" : {
                "KHR_materials_transmission" : {
                    "transmissionFactor" : 0.699999988079071
                }
            },
            "name" : "\u30de\u30c6\u30ea\u30a2\u30eb.004",
            "pbrMetallicRoughness" : {
                "baseColorFactor" : [
                    0.2812495231628418,
                    0.07236270606517792,
                    0,
                    0.44999998807907104
                ],
                "metallicFactor" : 0.6198347210884094,
                "roughnessFactor" : 0.10000000149011612
            }
        }
    ],
    "meshes" : [
        {
            "name" : "\u5186\u67f1.002",
            "primitives" : [
                {
                    "attributes" : {
                        "POSITION" : 0,
                        "NORMAL" : 1,
                        "TEXCOORD_0" : 2
                    },
                    "indices" : 3
                }
            ]
        },
        {
            "name" : "\u5186\u67f1.003",
            "primitives" : [
                {
                    "attributes" : {
                        "POSITION" : 4,
                        "NORMAL" : 5,
                        "TEXCOORD_0" : 6
                    },
                    "indices" : 7,
                    "material" : 0
                }
            ]
        },
        {
            "name" : "\u5e73\u9762.002",
            "primitives" : [
                {
                    "attributes" : {
                        "POSITION" : 8,
                        "NORMAL" : 9,
                        "TEXCOORD_0" : 10
                    },
                    "indices" : 11
                }
            ]
        },
        {
            "name" : "\u5186\u67f1",
            "primitives" : [
                {
                    "attributes" : {
                        "POSITION" : 12,
                        "NORMAL" : 13,
                        "TEXCOORD_0" : 14
                    },
                    "indices" : 15,
                    "material" : 1
                }
            ]
        },
        {
            "name" : "\u5186\u67f1.001",
            "primitives" : [
                {
                    "attributes" : {
                        "POSITION" : 16,
                        "NORMAL" : 17,
                        "TEXCOORD_0" : 18
                    },
                    "indices" : 19,
                    "material" : 1
                }
            ]
        },
        {
            "name" : "\u5186\u67f1.004",
            "primitives" : [
                {
                    "attributes" : {
                        "POSITION" : 20,
                        "NORMAL" : 21,
                        "TEXCOORD_0" : 22
                    },
                    "indices" : 23,
                    "material" : 2
                }
            ]
        }
    ],
    "accessors" : [
        {
            "bufferView" : 0,
            "componentType" : 5126,
            "count" : 192,
            "max" : [
                1,
                1,
                1
            ],
            "min" : [
                -1,
                -1.0000007152557373,
                -1
            ],
            "type" : "VEC3"
        },
        {
            "bufferView" : 1,
            "componentType" : 5126,
            "count" : 192,
            "type" : "VEC3"
        },
        {
            "bufferView" : 2,
            "componentType" : 5126,
            "count" : 192,
            "type" : "VEC2"
        },
        {
            "bufferView" : 3,
            "componentType" : 5123,
            "count" : 372,
            "type" : "SCALAR"
        },
        {
            "bufferView" : 4,
            "componentType" : 5126,
            "count" : 192,
            "max" : [
                1.064292311668396,
                1,
                1.064292311668396
            ],
            "min" : [
                -1.064292311668396,
                -1.000000238418579,
                -1.064292311668396
            ],
            "type" : "VEC3"
        },
        {
            "bufferView" : 5,
            "componentType" : 5126,
            "count" : 192,
            "type" : "VEC3"
        },
        {
            "bufferView" : 6,
            "componentType" : 5126,
            "count" : 192,
            "type" : "VEC2"
        },
        {
            "bufferView" : 7,
            "componentType" : 5123,
            "count" : 372,
            "type" : "SCALAR"
        },
        {
            "bufferView" : 8,
            "componentType" : 5126,
            "count" : 4,
            "max" : [
                1,
                0,
                1
            ],
            "min" : [
                -1,
                0,
                -1
            ],
            "type" : "VEC3"
        },
        {
            "bufferView" : 9,
            "componentType" : 5126,
            "count" : 4,
            "type" : "VEC3"
        },
        {
            "bufferView" : 10,
            "componentType" : 5126,
            "count" : 4,
            "type" : "VEC2"
        },
        {
            "bufferView" : 11,
            "componentType" : 5123,
            "count" : 6,
            "type" : "SCALAR"
        },
        {
            "bufferView" : 12,
            "componentType" : 5126,
            "count" : 912,
            "max" : [
                0.711042582988739,
                1.2853903770446777,
                0.711042582988739
            ],
            "min" : [
                -0.711042582988739,
                -1.2853904962539673,
                -0.711042582988739
            ],
            "type" : "VEC3"
        },
        {
            "bufferView" : 13,
            "componentType" : 5126,
            "count" : 912,
            "type" : "VEC3"
        },
        {
            "bufferView" : 14,
            "componentType" : 5126,
            "count" : 912,
            "type" : "VEC2"
        },
        {
            "bufferView" : 15,
            "componentType" : 5123,
            "count" : 4992,
            "type" : "SCALAR"
        },
        {
            "bufferView" : 16,
            "componentType" : 5126,
            "count" : 130,
            "max" : [
                1,
                1,
                1
            ],
            "min" : [
                -1,
                -1,
                -1
            ],
            "type" : "VEC3"
        },
        {
            "bufferView" : 17,
            "componentType" : 5126,
            "count" : 130,
            "type" : "VEC3"
        },
        {
            "bufferView" : 18,
            "componentType" : 5126,
            "count" : 130,
            "type" : "VEC2"
        },
        {
            "bufferView" : 19,
            "componentType" : 5123,
            "count" : 372,
            "type" : "SCALAR"
        },
        {
            "bufferView" : 20,
            "componentType" : 5126,
            "count" : 615,
            "max" : [
                0.711042582988739,
                1.2853903770446777,
                0.711042582988739
            ],
            "min" : [
                -0.711042582988739,
                -1.2853904962539673,
                -0.711042582988739
            ],
            "type" : "VEC3"
        },
        {
            "bufferView" : 21,
            "componentType" : 5126,
            "count" : 615,
            "type" : "VEC3"
        },
        {
            "bufferView" : 22,
            "componentType" : 5126,
            "count" : 615,
            "type" : "VEC2"
        },
        {
            "bufferView" : 23,
            "componentType" : 5123,
            "count" : 3303,
            "type" : "SCALAR"
        }
    ],
    "bufferViews" : [
        {
            "buffer" : 0,
            "byteLength" : 2304,
            "byteOffset" : 0
        },
        {
            "buffer" : 0,
            "byteLength" : 2304,
            "byteOffset" : 2304
        },
        {
            "buffer" : 0,
            "byteLength" : 1536,
            "byteOffset" : 4608
        },
        {
            "buffer" : 0,
            "byteLength" : 744,
            "byteOffset" : 6144
        },
        {
            "buffer" : 0,
            "byteLength" : 2304,
            "byteOffset" : 6888
        },
        {
            "buffer" : 0,
            "byteLength" : 2304,
            "byteOffset" : 9192
        },
        {
            "buffer" : 0,
            "byteLength" : 1536,
            "byteOffset" : 11496
        },
        {
            "buffer" : 0,
            "byteLength" : 744,
            "byteOffset" : 13032
        },
        {
            "buffer" : 0,
            "byteLength" : 48,
            "byteOffset" : 13776
        },
        {
            "buffer" : 0,
            "byteLength" : 48,
            "byteOffset" : 13824
        },
        {
            "buffer" : 0,
            "byteLength" : 32,
            "byteOffset" : 13872
        },
        {
            "buffer" : 0,
            "byteLength" : 12,
            "byteOffset" : 13904
        },
        {
            "buffer" : 0,
            "byteLength" : 10944,
            "byteOffset" : 13916
        },
        {
            "buffer" : 0,
            "byteLength" : 10944,
            "byteOffset" : 24860
        },
        {
            "buffer" : 0,
            "byteLength" : 7296,
            "byteOffset" : 35804
        },
        {
            "buffer" : 0,
            "byteLength" : 9984,
            "byteOffset" : 43100
        },
        {
            "buffer" : 0,
            "byteLength" : 1560,
            "byteOffset" : 53084
        },
        {
            "buffer" : 0,
            "byteLength" : 1560,
            "byteOffset" : 54644
        },
        {
            "buffer" : 0,
            "byteLength" : 1040,
            "byteOffset" : 56204
        },
        {
            "buffer" : 0,
            "byteLength" : 744,
            "byteOffset" : 57244
        },
        {
            "buffer" : 0,
            "byteLength" : 7380,
            "byteOffset" : 57988
        },
        {
            "buffer" : 0,
            "byteLength" : 7380,
            "byteOffset" : 65368
        },
        {
            "buffer" : 0,
            "byteLength" : 4920,
            "byteOffset" : 72748
        },
        {
            "buffer" : 0,
            "byteLength" : 6606,
            "byteOffset" : 77668
        }
    ],
    "buffers" : [
        {
            "byteLength" : 84276,
            "uri" : "data:application/octet-stream;base64,"
        }
    ]
}
