{
    "asset" : {
        "generator" : "Khronos glTF Blender I/O v1.6.16",
        "version" : "2.0"
    },
    "scene" : 0,
    "scenes" : [
        {
            "name" : "Scene",
            "nodes" : [
                2
            ]
        }
    ],
    "nodes" : [
        {
            "mesh" : 0,
            "name" : "eyes",
            "rotation" : [
                -0.04150696471333504,
                -0.11810676753520966,
                0.16198132932186127,
                0.9788207411766052
            ],
            "scale" : [
                3.1061694622039795,
                3.4183757305145264,
                3.0619559288024902
            ],
            "translation" : [
                2.837359666824341,
                2.2351064682006836,
                0.2598338723182678
            ]
        },
        {
            "children" : [
                0
            ],
            "mesh" : 1,
            "name" : "dog",
            "scale" : [
                1.3309634923934937,
                1.3309634923934937,
                1.3309634923934937
            ],
            "translation" : [
                -0.03304029628634453,
                3.8570566177368164,
                -0.07279177010059357
            ]
        },
        {
            "children" : [
                1
            ],
            "name" : "Sheltie dog pet",
            "scale" : [
                0.08082056045532227,
                0.08082056045532227,
                0.08082056045532227
            ]
        }
    ],
    "materials" : [
        {
            "doubleSided" : true,
            "name" : "Material.001",
            "pbrMetallicRoughness" : {
                "baseColorFactor" : [
                    0.03189603611826897,
                    0.0284260381013155,
                    0.029556844383478165,
                    1
                ],
                "metallicFactor" : 0,
                "roughnessFactor" : 0.27748745679855347
            }
        },
        {
            "doubleSided" : true,
            "name" : "Material.002",
            "pbrMetallicRoughness" : {
                "baseColorFactor" : [
                    0,
                    0,
                    0,
                    1
                ],
                "metallicFactor" : 0,
                "roughnessFactor" : 0.15909090638160706
            }
        },
        {
            "doubleSided" : true,
            "name" : "Material",
            "pbrMetallicRoughness" : {
                "metallicFactor" : 0,
                "roughnessFactor" : 0.6590909361839294
            }
        }
    ],
    "meshes" : [
        {
            "name" : "Sphere.001",
            "primitives" : [
                {
                    "attributes" : {
                        "POSITION" : 0,
                        "NORMAL" : 1,
                        "TEXCOORD_0" : 2
                    },
                    "indices" : 3,
                    "material" : 0
                },
                {
                    "attributes" : {
                        "POSITION" : 4,
                        "NORMAL" : 5,
                        "TEXCOORD_0" : 6
                    },
                    "indices" : 7,
                    "material" : 1
                }
            ]
        },
        {
            "name" : "Cube.001",
            "primitives" : [
                {
                    "attributes" : {
                        "POSITION" : 8,
                        "NORMAL" : 9,
                        "TEXCOORD_0" : 10
                    },
                    "indices" : 11,
                    "material" : 2
                }
            ]
        }
    ],
    "accessors" : [
        {
            "bufferView" : 0,
            "componentType" : 5126,
            "count" : 76,
            "max" : [
                0.013755185529589653,
                0.012125968001782894,
                0.013246885500848293
            ],
            "min" : [
                -0.01470041275024414,
                -0.014199785888195038,
                -0.01470000296831131
            ],
            "type" : "VEC3"
        },
        {
            "bufferView" : 1,
            "componentType" : 5126,
            "count" : 76,
            "type" : "VEC3"
        },
        {
            "bufferView" : 2,
            "componentType" : 5126,
            "count" : 76,
            "type" : "VEC2"
        },
        {
            "bufferView" : 3,
            "componentType" : 5123,
            "count" : 264,
            "type" : "SCALAR"
        },
        {
            "bufferView" : 4,
            "componentType" : 5126,
            "count" : 23,
            "max" : [
                0.014699459075927734,
                0.004764275159686804,
                0.01377493143081665
            ],
            "min" : [
                -0.01470041275024414,
                -0.007848566398024559,
                -0.01470000296831131
            ],
            "type" : "VEC3"
        },
        {
            "bufferView" : 5,
            "componentType" : 5126,
            "count" : 23,
            "type" : "VEC3"
        },
        {
            "bufferView" : 6,
            "componentType" : 5126,
            "count" : 23,
            "type" : "VEC2"
        },
        {
            "bufferView" : 7,
            "componentType" : 5123,
            "count" : 72,
            "type" : "SCALAR"
        },
        {
            "bufferView" : 8,
            "componentType" : 5126,
            "count" : 1315,
            "max" : [
                3.6133315563201904,
                2.7176380157470703,
                0.9522982835769653
            ],
            "min" : [
                -3.2911412715911865,
                -2.9225568771362305,
                -0.9522982835769653
            ],
            "type" : "VEC3"
        },
        {
            "bufferView" : 9,
            "componentType" : 5126,
            "count" : 1315,
            "type" : "VEC3"
        },
        {
            "bufferView" : 10,
            "componentType" : 5126,
            "count" : 1315,
            "type" : "VEC2"
        },
        {
            "bufferView" : 11,
            "componentType" : 5123,
            "count" : 4404,
            "type" : "SCALAR"
        }
    ],
    "bufferViews" : [
        {
            "buffer" : 0,
            "byteLength" : 912,
            "byteOffset" : 0
        },
        {
            "buffer" : 0,
            "byteLength" : 912,
            "byteOffset" : 912
        },
        {
            "buffer" : 0,
            "byteLength" : 608,
            "byteOffset" : 1824
        },
        {
            "buffer" : 0,
            "byteLength" : 528,
            "byteOffset" : 2432
        },
        {
            "buffer" : 0,
            "byteLength" : 276,
            "byteOffset" : 2960
        },
        {
            "buffer" : 0,
            "byteLength" : 276,
            "byteOffset" : 3236
        },
        {
            "buffer" : 0,
            "byteLength" : 184,
            "byteOffset" : 3512
        },
        {
            "buffer" : 0,
            "byteLength" : 144,
            "byteOffset" : 3696
        },
        {
            "buffer" : 0,
            "byteLength" : 15780,
            "byteOffset" : 3840
        },
        {
            "buffer" : 0,
            "byteLength" : 15780,
            "byteOffset" : 19620
        },
        {
            "buffer" : 0,
            "byteLength" : 10520,
            "byteOffset" : 35400
        },
        {
            "buffer" : 0,
            "byteLength" : 8808,
            "byteOffset" : 45920
        }
    ],
    "buffers" : [
        {
            "byteLength" : 54728,
            "uri" : "data:application/octet-stream;base64,"
        }
    ]
}
