{
    "asset" : {
        "generator" : "Khronos glTF Blender I/O v1.6.16",
        "version" : "2.0"
    },
    "scene" : 0,
    "scenes" : [
        {
            "name" : "Scene",
            "nodes" : [
                0,
                1,
                2,
                3,
                4,
                5,
                6,
                7
            ]
        }
    ],
    "nodes" : [
        {
            "name" : "Light",
            "rotation" : [
                0.16907575726509094,
                0.7558803558349609,
                -0.27217137813568115,
                0.570947527885437
            ],
            "translation" : [
                4.076245307922363,
                7.889172554016113,
                -1.0054539442062378
            ]
        },
        {
            "name" : "Camera",
            "rotation" : [
                0.36582064628601074,
                0.5223628878593445,
                -0.2640904486179352,
                0.7235803604125977
            ],
            "translation" : [
                10.277935981750488,
                10.26679515838623,
                2.4486827850341797
            ]
        },
        {
            "mesh" : 0,
            "name" : "\u7acb\u65b9\u4f53",
            "translation" : [
                0,
                1.9853103160858154,
                0
            ]
        },
        {
            "mesh" : 1,
            "name" : "\u5186\u67f1",
            "rotation" : [
                0,
                0,
                -0.7071067690849304,
                0.7071068286895752
            ],
            "translation" : [
                0,
                0.26380467414855957,
                0.931943416595459
            ]
        },
        {
            "mesh" : 2,
            "name" : "\u5186\u67f1.001",
            "rotation" : [
                0,
                0,
                -0.7071067690849304,
                0.7071068286895752
            ],
            "translation" : [
                1.1046565771102905,
                0.2658092975616455,
                0.9844470024108887
            ]
        },
        {
            "mesh" : 3,
            "name" : "\u5186\u67f1.002",
            "rotation" : [
                -0.7071068286895752,
                0.7071067690849304,
                0,
                -1.1520231879558196e-07
            ],
            "translation" : [
                -1.1070691347122192,
                0.2789353132247925,
                0.9844470024108887
            ]
        },
        {
            "mesh" : 4,
            "name" : "\u5186\u67f1.003",
            "rotation" : [
                0,
                0,
                -0.7071067690849304,
                0.7071068286895752
            ],
            "translation" : [
                -0.03281493857502937,
                3.992490530014038,
                1.2852519750595093
            ]
        },
        {
            "mesh" : 5,
            "name" : "\u5e73\u9762",
            "scale" : [
                30.919904708862305,
                30.919904708862305,
                30.919904708862305
            ]
        }
    ],
    "materials" : [
        {
            "doubleSided" : true,
            "name" : "\u30de\u30c6\u30ea\u30a2\u30eb",
            "pbrMetallicRoughness" : {
                "baseColorFactor" : [
                    0.800000011920929,
                    0.800000011920929,
                    0.800000011920929,
                    1
                ],
                "metallicFactor" : 0,
                "roughnessFactor" : 0.5
            }
        },
        {
            "doubleSided" : true,
            "name" : "\u30de\u30c6\u30ea\u30a2\u30eb.001",
            "pbrMetallicRoughness" : {
                "baseColorFactor" : [
                    0,
                    0.004457751289010048,
                    0.09285303205251694,
                    1
                ],
                "metallicFactor" : 0.32231405377388,
                "roughnessFactor" : 0.3512396812438965
            }
        },
        {
            "doubleSided" : true,
            "name" : "\u30de\u30c6\u30ea\u30a2\u30eb.003",
            "pbrMetallicRoughness" : {
                "baseColorFactor" : [
                    0.800000011920929,
                    0.800000011920929,
                    0.800000011920929,
                    1
                ],
                "roughnessFactor" : 0.04545453190803528
            }
        },
        {
            "doubleSided" : true,
            "name" : "\u30de\u30c6\u30ea\u30a2\u30eb.004",
            "pbrMetallicRoughness" : {
                "baseColorFactor" : [
                    0,
                    0,
                    0,
                    1
                ],
                "metallicFactor" : 0,
                "roughnessFactor" : 0.5
            }
        },
        {
            "doubleSided" : true,
            "name" : "\u30de\u30c6\u30ea\u30a2\u30eb.007",
            "pbrMetallicRoughness" : {
                "baseColorFactor" : [
                    0.029243633151054382,
                    0.029243633151054382,
                    0.029243633151054382,
                    1
                ],
                "metallicFactor" : 0,
                "roughnessFactor" : 0.5
            }
        },
        {
            "doubleSided" : true,
            "name" : "\u30de\u30c6\u30ea\u30a2\u30eb.005",
            "pbrMetallicRoughness" : {
                "baseColorFactor" : [
                    0,
                    0,
                    0,
                    1
                ],
                "metallicFactor" : 0
            }
        },
        {
            "doubleSided" : true,
            "name" : "\u30de\u30c6\u30ea\u30a2\u30eb.008",
            "pbrMetallicRoughness" : {
                "baseColorFactor" : [
                    0.07035645842552185,
                    0.07035645842552185,
                    0.07035645842552185,
                    1
                ],
                "metallicFactor" : 0,
                "roughnessFactor" : 0.5
            }
        },
        {
            "doubleSided" : true,
            "name" : "\u30de\u30c6\u30ea\u30a2\u30eb.002",
            "pbrMetallicRoughness" : {
                "baseColorFactor" : [
                    0.34236982464790344,
                    1,
                    0.8120488524436951,
                    1
                ],
                "metallicFactor" : 0,
                "roughnessFactor" : 0.5
            }
        }
    ],
    "meshes" : [
        {
            "name" : "\u7acb\u65b9\u4f53",
            "primitives" : [
                {
                    "attributes" : {
                        "POSITION" : 0,
                        "NORMAL" : 1,
                        "TEXCOORD_0" : 2
                    },
                    "indices" : 3,
                    "material" : 0
                },
                {
                    "attributes" : {
                        "POSITION" : 4,
                        "NORMAL" : 5,
                        "TEXCOORD_0" : 6
                    },
                    "indices" : 7,
                    "material" : 1
                }
            ]
        },
        {
            "name" : "\u5186\u67f1",
            "primitives" : [
                {
                    "attributes" : {
                        "POSITION" : 8,
                        "NORMAL" : 9,
                        "TEXCOORD_0" : 10
                    },
                    "indices" : 11,
                    "material" : 2
                }
            ]
        },
        {
            "name" : "\u5186\u67f1.001",
            "primitives" : [
                {
                    "attributes" : {
                        "POSITION" : 12,
                        "NORMAL" : 13,
                        "TEXCOORD_0" : 14
                    },
                    "indices" : 15,
                    "material" : 3
                },
                {
                    "attributes" : {
                        "POSITION" : 16,
                        "NORMAL" : 17,
                        "TEXCOORD_0" : 18
                    },
                    "indices" : 19,
                    "material" : 4
                }
            ]
        },
        {
            "name" : "\u5186\u67f1.002",
            "primitives" : [
                {
                    "attributes" : {
                        "POSITION" : 20,
                        "NORMAL" : 21,
                        "TEXCOORD_0" : 22
                    },
                    "indices" : 15,
                    "material" : 5
                },
                {
                    "attributes" : {
                        "POSITION" : 23,
                        "NORMAL" : 24,
                        "TEXCOORD_0" : 25
                    },
                    "indices" : 19,
                    "material" : 6
                }
            ]
        },
        {
            "name" : "\u5186\u67f1.003",
            "primitives" : [
                {
                    "attributes" : {
                        "POSITION" : 26,
                        "NORMAL" : 27,
                        "TEXCOORD_0" : 28
                    },
                    "indices" : 11
                }
            ]
        },
        {
            "name" : "\u5e73\u9762",
            "primitives" : [
                {
                    "attributes" : {
                        "POSITION" : 29,
                        "NORMAL" : 30,
                        "TEXCOORD_0" : 31
                    },
                    "indices" : 32,
                    "material" : 7
                }
            ]
        }
    ],
    "accessors" : [
        {
            "bufferView" : 0,
            "componentType" : 5126,
            "count" : 1360,
            "max" : [
                1.039705753326416,
                2.503272533416748,
                1.5016229152679443
            ],
            "min" : [
                -1.0517044067382812,
                -1.9617283344268799,
                -1.051567554473877
            ],
            "type" : "VEC3"
        },
        {
            "bufferView" : 1,
            "componentType" : 5126,
            "count" : 1360,
            "type" : "VEC3"
        },
        {
            "bufferView" : 2,
            "componentType" : 5126,
            "count" : 1360,
            "type" : "VEC2"
        },
        {
            "bufferView" : 3,
            "componentType" : 5123,
            "count" : 4038,
            "type" : "SCALAR"
        },
        {
            "bufferView" : 4,
            "componentType" : 5126,
            "count" : 1953,
            "max" : [
                1.1769698858261108,
                2.1931097507476807,
                1.50232994556427
            ],
            "min" : [
                -1.1761292219161987,
                -1.9617283344268799,
                -1.2380363941192627
            ],
            "type" : "VEC3"
        },
        {
            "bufferView" : 5,
            "componentType" : 5126,
            "count" : 1953,
            "type" : "VEC3"
        },
        {
            "bufferView" : 6,
            "componentType" : 5126,
            "count" : 1953,
            "type" : "VEC2"
        },
        {
            "bufferView" : 7,
            "componentType" : 5123,
            "count" : 3984,
            "type" : "SCALAR"
        },
        {
            "bufferView" : 8,
            "componentType" : 5126,
            "count" : 192,
            "max" : [
                0.04726819321513176,
                1.0383621454238892,
                0.04726819321513176
            ],
            "min" : [
                -0.04726819321513176,
                -1.0383621454238892,
                -0.04726819321513176
            ],
            "type" : "VEC3"
        },
        {
            "bufferView" : 9,
            "componentType" : 5126,
            "count" : 192,
            "type" : "VEC3"
        },
        {
            "bufferView" : 10,
            "componentType" : 5126,
            "count" : 192,
            "type" : "VEC2"
        },
        {
            "bufferView" : 11,
            "componentType" : 5123,
            "count" : 372,
            "type" : "SCALAR"
        },
        {
            "bufferView" : 12,
            "componentType" : 5126,
            "count" : 656,
            "max" : [
                0.2510567009449005,
                0.0857115164399147,
                0.2510567009449005
            ],
            "min" : [
                -0.2510567009449005,
                -0.08352378755807877,
                -0.2510567009449005
            ],
            "type" : "VEC3"
        },
        {
            "bufferView" : 13,
            "componentType" : 5126,
            "count" : 656,
            "type" : "VEC3"
        },
        {
            "bufferView" : 14,
            "componentType" : 5126,
            "count" : 656,
            "type" : "VEC2"
        },
        {
            "bufferView" : 15,
            "componentType" : 5123,
            "count" : 1050,
            "type" : "SCALAR"
        },
        {
            "bufferView" : 16,
            "componentType" : 5126,
            "count" : 158,
            "max" : [
                0.1472616195678711,
                0.0857115164399147,
                0.1472616195678711
            ],
            "min" : [
                -0.1472616195678711,
                -0.034609876573085785,
                -0.1472616195678711
            ],
            "type" : "VEC3"
        },
        {
            "bufferView" : 17,
            "componentType" : 5126,
            "count" : 158,
            "type" : "VEC3"
        },
        {
            "bufferView" : 18,
            "componentType" : 5126,
            "count" : 158,
            "type" : "VEC2"
        },
        {
            "bufferView" : 19,
            "componentType" : 5123,
            "count" : 282,
            "type" : "SCALAR"
        },
        {
            "bufferView" : 20,
            "componentType" : 5126,
            "count" : 656,
            "max" : [
                0.2510567009449005,
                0.0857115164399147,
                0.2510567009449005
            ],
            "min" : [
                -0.2510567009449005,
                -0.08352378755807877,
                -0.2510567009449005
            ],
            "type" : "VEC3"
        },
        {
            "bufferView" : 21,
            "componentType" : 5126,
            "count" : 656,
            "type" : "VEC3"
        },
        {
            "bufferView" : 22,
            "componentType" : 5126,
            "count" : 656,
            "type" : "VEC2"
        },
        {
            "bufferView" : 23,
            "componentType" : 5126,
            "count" : 158,
            "max" : [
                0.1472616195678711,
                0.0857115164399147,
                0.1472616195678711
            ],
            "min" : [
                -0.1472616195678711,
                -0.034609876573085785,
                -0.1472616195678711
            ],
            "type" : "VEC3"
        },
        {
            "bufferView" : 24,
            "componentType" : 5126,
            "count" : 158,
            "type" : "VEC3"
        },
        {
            "bufferView" : 25,
            "componentType" : 5126,
            "count" : 158,
            "type" : "VEC2"
        },
        {
            "bufferView" : 26,
            "componentType" : 5126,
            "count" : 192,
            "max" : [
                0.08750283718109131,
                1.1377941370010376,
                0.08750283718109131
            ],
            "min" : [
                -0.08750283718109131,
                -1.1377941370010376,
                -0.08750283718109131
            ],
            "type" : "VEC3"
        },
        {
            "bufferView" : 27,
            "componentType" : 5126,
            "count" : 192,
            "type" : "VEC3"
        },
        {
            "bufferView" : 28,
            "componentType" : 5126,
            "count" : 192,
            "type" : "VEC2"
        },
        {
            "bufferView" : 29,
            "componentType" : 5126,
            "count" : 4,
            "max" : [
                1,
                0,
                1
            ],
            "min" : [
                -1,
                0,
                -1
            ],
            "type" : "VEC3"
        },
        {
            "bufferView" : 30,
            "componentType" : 5126,
            "count" : 4,
            "type" : "VEC3"
        },
        {
            "bufferView" : 31,
            "componentType" : 5126,
            "count" : 4,
            "type" : "VEC2"
        },
        {
            "bufferView" : 32,
            "componentType" : 5123,
            "count" : 6,
            "type" : "SCALAR"
        }
    ],
    "bufferViews" : [
        {
            "buffer" : 0,
            "byteLength" : 16320,
            "byteOffset" : 0
        },
        {
            "buffer" : 0,
            "byteLength" : 16320,
            "byteOffset" : 16320
        },
        {
            "buffer" : 0,
            "byteLength" : 10880,
            "byteOffset" : 32640
        },
        {
            "buffer" : 0,
            "byteLength" : 8076,
            "byteOffset" : 43520
        },
        {
            "buffer" : 0,
            "byteLength" : 23436,
            "byteOffset" : 51596
        },
        {
            "buffer" : 0,
            "byteLength" : 23436,
            "byteOffset" : 75032
        },
        {
            "buffer" : 0,
            "byteLength" : 15624,
            "byteOffset" : 98468
        },
        {
            "buffer" : 0,
            "byteLength" : 7968,
            "byteOffset" : 114092
        },
        {
            "buffer" : 0,
            "byteLength" : 2304,
            "byteOffset" : 122060
        },
        {
            "buffer" : 0,
            "byteLength" : 2304,
            "byteOffset" : 124364
        },
        {
            "buffer" : 0,
            "byteLength" : 1536,
            "byteOffset" : 126668
        },
        {
            "buffer" : 0,
            "byteLength" : 744,
            "byteOffset" : 128204
        },
        {
            "buffer" : 0,
            "byteLength" : 7872,
            "byteOffset" : 128948
        },
        {
            "buffer" : 0,
            "byteLength" : 7872,
            "byteOffset" : 136820
        },
        {
            "buffer" : 0,
            "byteLength" : 5248,
            "byteOffset" : 144692
        },
        {
            "buffer" : 0,
            "byteLength" : 2100,
            "byteOffset" : 149940
        },
        {
            "buffer" : 0,
            "byteLength" : 1896,
            "byteOffset" : 152040
        },
        {
            "buffer" : 0,
            "byteLength" : 1896,
            "byteOffset" : 153936
        },
        {
            "buffer" : 0,
            "byteLength" : 1264,
            "byteOffset" : 155832
        },
        {
            "buffer" : 0,
            "byteLength" : 564,
            "byteOffset" : 157096
        },
        {
            "buffer" : 0,
            "byteLength" : 7872,
            "byteOffset" : 157660
        },
        {
            "buffer" : 0,
            "byteLength" : 7872,
            "byteOffset" : 165532
        },
        {
            "buffer" : 0,
            "byteLength" : 5248,
            "byteOffset" : 173404
        },
        {
            "buffer" : 0,
            "byteLength" : 1896,
            "byteOffset" : 178652
        },
        {
            "buffer" : 0,
            "byteLength" : 1896,
            "byteOffset" : 180548
        },
        {
            "buffer" : 0,
            "byteLength" : 1264,
            "byteOffset" : 182444
        },
        {
            "buffer" : 0,
            "byteLength" : 2304,
            "byteOffset" : 183708
        },
        {
            "buffer" : 0,
            "byteLength" : 2304,
            "byteOffset" : 186012
        },
        {
            "buffer" : 0,
            "byteLength" : 1536,
            "byteOffset" : 188316
        },
        {
            "buffer" : 0,
            "byteLength" : 48,
            "byteOffset" : 189852
        },
        {
            "buffer" : 0,
            "byteLength" : 48,
            "byteOffset" : 189900
        },
        {
            "buffer" : 0,
            "byteLength" : 32,
            "byteOffset" : 189948
        },
        {
            "buffer" : 0,
            "byteLength" : 12,
            "byteOffset" : 189980
        }
    ],
    "buffers" : [
        {
            "byteLength" : 189992,
            "uri" : "data:application/octet-stream;base64,"
        }
    ]
}
