{
    "asset" : {
        "generator" : "Khronos glTF Blender I/O v1.6.16",
        "version" : "2.0"
    },
    "scene" : 0,
    "scenes" : [
        {
            "name" : "Scene",
            "nodes" : [
                0,
                1,
                2,
                3
            ]
        }
    ],
    "nodes" : [
        {
            "mesh" : 0,
            "name" : "Cube",
            "scale" : [
                2.7928216457366943,
                1,
                1
            ]
        },
        {
            "name" : "Camera",
            "rotation" : [
                0.483536034822464,
                0.33687159419059753,
                -0.20870360732078552,
                0.7804827094078064
            ],
            "translation" : [
                7.358891487121582,
                4.958309173583984,
                6.925790786743164
            ]
        },
        {
            "mesh" : 1,
            "name" : "\u7acb\u65b9\u4f53.001",
            "rotation" : [
                -0.44201165437698364,
                0,
                0,
                0.8970094323158264
            ],
            "scale" : [
                0.12029325217008591,
                0.7786201238632202,
                0.12029325217008591
            ],
            "translation" : [
                3.091796398162842,
                1.7545549869537354,
                -0.9598017930984497
            ]
        },
        {
            "mesh" : 2,
            "name" : "\u7acb\u65b9\u4f53.002",
            "rotation" : [
                0.46671944856643677,
                0,
                0,
                0.8844054341316223
            ],
            "scale" : [
                0.12029325217008591,
                0.7786201238632202,
                0.12029325217008591
            ],
            "translation" : [
                3.091796398162842,
                1.7073014974594116,
                0.9397888779640198
            ]
        }
    ],
    "materials" : [
        {
            "doubleSided" : true,
            "name" : "body",
            "pbrMetallicRoughness" : {
                "baseColorFactor" : [
                    0.8000000715255737,
                    0.5722445845603943,
                    0.4481787383556366,
                    1
                ],
                "metallicFactor" : 0,
                "roughnessFactor" : 0.5
            }
        },
        {
            "doubleSided" : true,
            "name" : "\u30de\u30c6\u30ea\u30a2\u30eb",
            "pbrMetallicRoughness" : {
                "baseColorFactor" : [
                    0.8000000715255737,
                    0.23368602991104126,
                    0.006770449224859476,
                    1
                ],
                "metallicFactor" : 0,
                "roughnessFactor" : 0.5
            }
        }
    ],
    "meshes" : [
        {
            "name" : "Cube",
            "primitives" : [
                {
                    "attributes" : {
                        "POSITION" : 0,
                        "NORMAL" : 1,
                        "TEXCOORD_0" : 2
                    },
                    "indices" : 3,
                    "material" : 0
                }
            ]
        },
        {
            "name" : "\u7acb\u65b9\u4f53.002",
            "primitives" : [
                {
                    "attributes" : {
                        "POSITION" : 4,
                        "NORMAL" : 5,
                        "TEXCOORD_0" : 6
                    },
                    "indices" : 7,
                    "material" : 1
                }
            ]
        },
        {
            "name" : "\u7acb\u65b9\u4f53.003",
            "primitives" : [
                {
                    "attributes" : {
                        "POSITION" : 8,
                        "NORMAL" : 9,
                        "TEXCOORD_0" : 10
                    },
                    "indices" : 7,
                    "material" : 1
                }
            ]
        }
    ],
    "accessors" : [
        {
            "bufferView" : 0,
            "componentType" : 5126,
            "count" : 3070,
            "max" : [
                1.3784854412078857,
                2.157351016998291,
                1.3402252197265625
            ],
            "min" : [
                -1.128589153289795,
                -2.565034866333008,
                -1.315767526626587
            ],
            "type" : "VEC3"
        },
        {
            "bufferView" : 1,
            "componentType" : 5126,
            "count" : 3070,
            "type" : "VEC3"
        },
        {
            "bufferView" : 2,
            "componentType" : 5126,
            "count" : 3070,
            "type" : "VEC2"
        },
        {
            "bufferView" : 3,
            "componentType" : 5123,
            "count" : 4884,
            "type" : "SCALAR"
        },
        {
            "bufferView" : 4,
            "componentType" : 5126,
            "count" : 336,
            "max" : [
                1,
                0.9999999403953552,
                1
            ],
            "min" : [
                -1,
                -1,
                -1
            ],
            "type" : "VEC3"
        },
        {
            "bufferView" : 5,
            "componentType" : 5126,
            "count" : 336,
            "type" : "VEC3"
        },
        {
            "bufferView" : 6,
            "componentType" : 5126,
            "count" : 336,
            "type" : "VEC2"
        },
        {
            "bufferView" : 7,
            "componentType" : 5123,
            "count" : 516,
            "type" : "SCALAR"
        },
        {
            "bufferView" : 8,
            "componentType" : 5126,
            "count" : 336,
            "max" : [
                1,
                0.9999999403953552,
                1
            ],
            "min" : [
                -1,
                -1,
                -1
            ],
            "type" : "VEC3"
        },
        {
            "bufferView" : 9,
            "componentType" : 5126,
            "count" : 336,
            "type" : "VEC3"
        },
        {
            "bufferView" : 10,
            "componentType" : 5126,
            "count" : 336,
            "type" : "VEC2"
        }
    ],
    "bufferViews" : [
        {
            "buffer" : 0,
            "byteLength" : 36840,
            "byteOffset" : 0
        },
        {
            "buffer" : 0,
            "byteLength" : 36840,
            "byteOffset" : 36840
        },
        {
            "buffer" : 0,
            "byteLength" : 24560,
            "byteOffset" : 73680
        },
        {
            "buffer" : 0,
            "byteLength" : 9768,
            "byteOffset" : 98240
        },
        {
            "buffer" : 0,
            "byteLength" : 4032,
            "byteOffset" : 108008
        },
        {
            "buffer" : 0,
            "byteLength" : 4032,
            "byteOffset" : 112040
        },
        {
            "buffer" : 0,
            "byteLength" : 2688,
            "byteOffset" : 116072
        },
        {
            "buffer" : 0,
            "byteLength" : 1032,
            "byteOffset" : 118760
        },
        {
            "buffer" : 0,
            "byteLength" : 4032,
            "byteOffset" : 119792
        },
        {
            "buffer" : 0,
            "byteLength" : 4032,
            "byteOffset" : 123824
        },
        {
            "buffer" : 0,
            "byteLength" : 2688,
            "byteOffset" : 127856
        }
    ],
    "buffers" : [
        {
            "byteLength" : 130544,
            "uri" : "data:application/octet-stream;base64,"
        }
    ]
}
